<svg xmlns="http://www.w3.org/2000/svg" viewBox="0 0 1680 1120" width="1680" height="1120">
  <defs>
    <pattern id="tile" width="70" height="70" patternUnits="userSpaceOnUse">
      <rect width="70" height="70" fill="#4e6b41"/>
      <rect width="70" height="70" fill="none" stroke="#405835" stroke-width="2"/>
      <circle cx="18" cy="24" r="3" fill="#46603b"/>
      <circle cx="52" cy="48" r="2" fill="#547446"/>
      <path d="M8 58 L26 62" stroke="#455e39" stroke-width="2"/>
    </pattern>
    <radialGradient id="vignette" cx="50%" cy="50%" r="72%">
      <stop offset="60%" stop-color="#000" stop-opacity="0"/>
      <stop offset="100%" stop-color="#000" stop-opacity="0.45"/>
    </radialGradient>
  </defs>
  <rect width="1680" height="1120" fill="#1a2716"/>
  <rect x="70" y="70" width="1540" height="980" fill="url(#tile)"/>
  <rect x="70" y="70" width="1540" height="980" fill="none" stroke="#25381f" stroke-width="24"/>
  
  <ellipse cx="840" cy="560" rx="430" ry="330" fill="#5d7a4a" opacity="0.85"/>
  <ellipse cx="520" cy="820" rx="190" ry="120" fill="#3f6b8a" opacity="0.8"/>
  <g><circle cx="260" cy="260" r="78" fill="#2f4a28"/><circle cx="244" cy="242" r="52" fill="#3e6234"/></g><g><circle cx="420" cy="200" r="78" fill="#2f4a28"/><circle cx="404" cy="182" r="52" fill="#3e6234"/></g><g><circle cx="1350" cy="300" r="78" fill="#2f4a28"/><circle cx="1334" cy="282" r="52" fill="#3e6234"/></g><g><circle cx="1420" cy="760" r="78" fill="#2f4a28"/><circle cx="1404" cy="742" r="52" fill="#3e6234"/></g><g><circle cx="300" cy="900" r="78" fill="#2f4a28"/><circle cx="284" cy="882" r="52" fill="#3e6234"/></g><g><circle cx="1180" cy="940" r="78" fill="#2f4a28"/><circle cx="1164" cy="922" r="52" fill="#3e6234"/></g><g><circle cx="700" cy="190" r="78" fill="#2f4a28"/><circle cx="684" cy="172" r="52" fill="#3e6234"/></g><g><circle cx="980" cy="210" r="78" fill="#2f4a28"/><circle cx="964" cy="192" r="52" fill="#3e6234"/></g>
  <circle cx="760" cy="520" r="22" fill="#6d6155"/><circle cx="900" cy="640" r="22" fill="#6d6155"/><circle cx="820" cy="700" r="22" fill="#6d6155"/>
  <rect width="1680" height="1120" fill="url(#vignette)"/>
</svg>